<?xml version="1.0" encoding="iso-8859-1"?>
<!-- Generator: Adobe Illustrator 18.0.0, SVG Export Plug-In . SVG Version: 6.00 Build 0)  -->
<!DOCTYPE svg PUBLIC "-//W3C//DTD SVG 1.1//EN" "http://www.w3.org/Graphics/SVG/1.1/DTD/svg11.dtd">
<svg xmlns="http://www.w3.org/2000/svg" xmlns:xlink="http://www.w3.org/1999/xlink" version="1.1" id="Capa_1" x="0px" y="0px" viewBox="0 0 471.115 471.115" style="enable-background:new 0 0 471.115 471.115;" xml:space="preserve" width="512px" height="512px">
<path d="M372.781,195.115l-44.891-25.916v-33.961c0-44.82-24.112-86.583-62.928-108.993L233.666,8.175  c-18.876-10.9-41.417-10.9-60.297,0c-18.878,10.899-30.148,30.42-30.148,52.218v47.174c0,0-25.439,14.693-44.887,25.925  c-2.32,1.34-3.75,3.815-3.75,6.495v215.744c0,2.68,1.43,5.155,3.75,6.495l186.86,107.883c1.16,0.67,2.455,1.005,3.75,1.005  s2.59-0.335,3.75-1.005c0.018-0.011,80.086-46.241,80.086-46.241c2.32-1.34,3.75-3.815,3.75-6.495V201.61  C376.531,198.93,375.101,196.454,372.781,195.115z M354.034,201.612l-65.089,37.599l-171.858-99.221l26.167-15.117  c0.661,13.535,11.88,24.344,25.577,24.344c14.12,0,25.608-11.488,25.608-25.609v-14.114l82.233,47.468v43.694  c0,14.121,11.488,25.609,25.609,25.609c14.12,0,25.608-11.488,25.608-25.609v-14.137L354.034,201.612z M276.672,139.643  l-82.233-47.468V60.393c0-4.56,2.845-6.883,4.539-7.862c1.696-0.979,5.131-2.281,9.079,0L239.354,70.6  c23.019,13.29,37.318,38.058,37.318,64.638V139.643z M158.221,60.393c0-16.375,8.467-31.041,22.648-39.228  c14.183-8.189,31.116-8.188,45.297,0l31.296,18.069c34.189,19.739,55.428,56.525,55.428,96.003v65.418  c0,5.85-4.759,10.609-10.608,10.609s-10.609-4.759-10.609-10.609v-65.418c0-31.922-17.174-61.667-44.818-77.628l-31.297-18.069  c-3.769-2.176-7.902-3.264-12.038-3.264c-4.135,0-8.271,1.088-12.04,3.264c-7.539,4.353-12.04,12.148-12.04,20.853v63.215  c0,5.85-4.759,10.609-10.608,10.609s-10.609-4.759-10.609-10.609V60.393z M281.445,450.625l-171.86-99.223V152.978l171.86,99.223  V450.625z M296.445,450.62V252.2l65.086-37.597v198.441L296.445,450.62z" fill="#ffdd57"/>
<g>
</g>
<g>
</g>
<g>
</g>
<g>
</g>
<g>
</g>
<g>
</g>
<g>
</g>
<g>
</g>
<g>
</g>
<g>
</g>
<g>
</g>
<g>
</g>
<g>
</g>
<g>
</g>
<g>
</g>
</svg>
